<mxfile host="app.diagrams.net" modified="2021-09-18T16:32:25.899Z" agent="5.0 (Windows NT 10.0; Win64; x64) AppleWebKit/537.36 (KHTML, like Gecko) Chrome/93.0.4577.63 Safari/537.36 Edg/93.0.961.47" etag="LXW6K8KTO5V6AiDN9FKZ" version="15.2.9" type="github">
  <diagram id="Z9POrxEhZ8tej4BVq47g" name="Page-1">
    <mxGraphModel dx="1065" dy="493" grid="1" gridSize="10" guides="1" tooltips="1" connect="1" arrows="1" fold="1" page="1" pageScale="1" pageWidth="827" pageHeight="1169" math="0" shadow="0">
      <root>
        <mxCell id="0" />
        <mxCell id="1" parent="0" />
        <mxCell id="4W3oqbQlcdMNd9oFhW5l-7" value="&lt;b&gt;Paros&lt;/b&gt;" style="swimlane;fontStyle=0;align=center;verticalAlign=top;childLayout=stackLayout;horizontal=1;startSize=30;horizontalStack=0;resizeParent=1;resizeParentMax=0;resizeLast=0;collapsible=0;marginBottom=0;html=1;" parent="1" vertex="1">
          <mxGeometry x="190" y="80.5" width="150" height="199" as="geometry" />
        </mxCell>
        <mxCell id="4W3oqbQlcdMNd9oFhW5l-8" value="attributes" style="text;html=1;strokeColor=none;fillColor=none;align=center;verticalAlign=middle;spacingLeft=4;spacingRight=4;overflow=hidden;rotatable=0;points=[[0,0.5],[1,0.5]];portConstraint=eastwest;" parent="4W3oqbQlcdMNd9oFhW5l-7" vertex="1">
          <mxGeometry y="30" width="150" height="20" as="geometry" />
        </mxCell>
        <mxCell id="4W3oqbQlcdMNd9oFhW5l-9" value="- log : Log" style="text;html=1;strokeColor=none;fillColor=none;align=left;verticalAlign=middle;spacingLeft=4;spacingRight=4;overflow=hidden;rotatable=0;points=[[0,0.5],[1,0.5]];portConstraint=eastwest;" parent="4W3oqbQlcdMNd9oFhW5l-7" vertex="1">
          <mxGeometry y="50" width="150" height="20" as="geometry" />
        </mxCell>
        <mxCell id="07vZmLZVeoe9q8lstHSA-1" value="- cmdLine : CommandLine" style="text;html=1;strokeColor=none;fillColor=none;align=left;verticalAlign=middle;spacingLeft=4;spacingRight=4;overflow=hidden;rotatable=0;points=[[0,0.5],[1,0.5]];portConstraint=eastwest;" vertex="1" parent="4W3oqbQlcdMNd9oFhW5l-7">
          <mxGeometry y="70" width="150" height="20" as="geometry" />
        </mxCell>
        <mxCell id="4W3oqbQlcdMNd9oFhW5l-12" value="" style="line;strokeWidth=1;fillColor=none;align=left;verticalAlign=middle;spacingTop=-1;spacingLeft=3;spacingRight=3;rotatable=0;labelPosition=right;points=[];portConstraint=eastwest;" parent="4W3oqbQlcdMNd9oFhW5l-7" vertex="1">
          <mxGeometry y="90" width="150" height="8" as="geometry" />
        </mxCell>
        <mxCell id="4W3oqbQlcdMNd9oFhW5l-13" value="operations" style="text;html=1;strokeColor=none;fillColor=none;align=center;verticalAlign=middle;spacingLeft=4;spacingRight=4;overflow=hidden;rotatable=0;points=[[0,0.5],[1,0.5]];portConstraint=eastwest;" parent="4W3oqbQlcdMNd9oFhW5l-7" vertex="1">
          <mxGeometry y="98" width="150" height="20" as="geometry" />
        </mxCell>
        <mxCell id="4W3oqbQlcdMNd9oFhW5l-14" value="- void init()" style="text;html=1;strokeColor=none;fillColor=none;align=left;verticalAlign=middle;spacingLeft=4;spacingRight=4;overflow=hidden;rotatable=0;points=[[0,0.5],[1,0.5]];portConstraint=eastwest;" parent="4W3oqbQlcdMNd9oFhW5l-7" vertex="1">
          <mxGeometry y="118" width="150" height="27" as="geometry" />
        </mxCell>
        <mxCell id="4W3oqbQlcdMNd9oFhW5l-31" value="- void run()" style="text;html=1;strokeColor=none;fillColor=none;align=left;verticalAlign=middle;spacingLeft=4;spacingRight=4;overflow=hidden;rotatable=0;points=[[0,0.5],[1,0.5]];portConstraint=eastwest;" parent="4W3oqbQlcdMNd9oFhW5l-7" vertex="1">
          <mxGeometry y="145" width="150" height="27" as="geometry" />
        </mxCell>
        <mxCell id="07vZmLZVeoe9q8lstHSA-12" value="- void runCommandLine()" style="text;html=1;strokeColor=none;fillColor=none;align=left;verticalAlign=middle;spacingLeft=4;spacingRight=4;overflow=hidden;rotatable=0;points=[[0,0.5],[1,0.5]];portConstraint=eastwest;" vertex="1" parent="4W3oqbQlcdMNd9oFhW5l-7">
          <mxGeometry y="172" width="150" height="27" as="geometry" />
        </mxCell>
        <mxCell id="4W3oqbQlcdMNd9oFhW5l-15" value="&lt;b&gt;Constant&lt;/b&gt;" style="swimlane;fontStyle=0;align=center;verticalAlign=top;childLayout=stackLayout;horizontal=1;startSize=30;horizontalStack=0;resizeParent=1;resizeParentMax=0;resizeLast=0;collapsible=0;marginBottom=0;html=1;" parent="1" vertex="1">
          <mxGeometry x="490" y="100" width="160" height="178" as="geometry" />
        </mxCell>
        <mxCell id="4W3oqbQlcdMNd9oFhW5l-16" value="attributes" style="text;html=1;strokeColor=none;fillColor=none;align=center;verticalAlign=middle;spacingLeft=4;spacingRight=4;overflow=hidden;rotatable=0;points=[[0,0.5],[1,0.5]];portConstraint=eastwest;" parent="4W3oqbQlcdMNd9oFhW5l-15" vertex="1">
          <mxGeometry y="30" width="160" height="20" as="geometry" />
        </mxCell>
        <mxCell id="4W3oqbQlcdMNd9oFhW5l-17" value="&lt;u&gt;+ USER_AGENT : string&lt;/u&gt;" style="text;html=1;strokeColor=none;fillColor=none;align=left;verticalAlign=middle;spacingLeft=4;spacingRight=4;overflow=hidden;rotatable=0;points=[[0,0.5],[1,0.5]];portConstraint=eastwest;" parent="4W3oqbQlcdMNd9oFhW5l-15" vertex="1">
          <mxGeometry y="50" width="160" height="20" as="geometry" />
        </mxCell>
        <mxCell id="07vZmLZVeoe9q8lstHSA-18" value="&lt;u&gt;+ PROGRAM_TITLE : string&lt;/u&gt;" style="text;html=1;strokeColor=none;fillColor=none;align=left;verticalAlign=middle;spacingLeft=4;spacingRight=4;overflow=hidden;rotatable=0;points=[[0,0.5],[1,0.5]];portConstraint=eastwest;" vertex="1" parent="4W3oqbQlcdMNd9oFhW5l-15">
          <mxGeometry y="70" width="160" height="20" as="geometry" />
        </mxCell>
        <mxCell id="4W3oqbQlcdMNd9oFhW5l-20" value="" style="line;strokeWidth=1;fillColor=none;align=left;verticalAlign=middle;spacingTop=-1;spacingLeft=3;spacingRight=3;rotatable=0;labelPosition=right;points=[];portConstraint=eastwest;" parent="4W3oqbQlcdMNd9oFhW5l-15" vertex="1">
          <mxGeometry y="90" width="160" height="8" as="geometry" />
        </mxCell>
        <mxCell id="4W3oqbQlcdMNd9oFhW5l-21" value="operations" style="text;html=1;strokeColor=none;fillColor=none;align=center;verticalAlign=middle;spacingLeft=4;spacingRight=4;overflow=hidden;rotatable=0;points=[[0,0.5],[1,0.5]];portConstraint=eastwest;" parent="4W3oqbQlcdMNd9oFhW5l-15" vertex="1">
          <mxGeometry y="98" width="160" height="20" as="geometry" />
        </mxCell>
        <mxCell id="4W3oqbQlcdMNd9oFhW5l-22" value="&lt;u&gt;+ getInstance()&lt;/u&gt;" style="text;html=1;strokeColor=none;fillColor=none;align=left;verticalAlign=middle;spacingLeft=4;spacingRight=4;overflow=hidden;rotatable=0;points=[[0,0.5],[1,0.5]];portConstraint=eastwest;" parent="4W3oqbQlcdMNd9oFhW5l-15" vertex="1">
          <mxGeometry y="118" width="160" height="20" as="geometry" />
        </mxCell>
        <mxCell id="07vZmLZVeoe9q8lstHSA-17" value="&lt;u&gt;+ boolean isWindows()&lt;/u&gt;" style="text;html=1;strokeColor=none;fillColor=none;align=left;verticalAlign=middle;spacingLeft=4;spacingRight=4;overflow=hidden;rotatable=0;points=[[0,0.5],[1,0.5]];portConstraint=eastwest;" vertex="1" parent="4W3oqbQlcdMNd9oFhW5l-15">
          <mxGeometry y="138" width="160" height="20" as="geometry" />
        </mxCell>
        <mxCell id="07vZmLZVeoe9q8lstHSA-19" value="&lt;u&gt;+ boolean isLinux()&lt;/u&gt;" style="text;html=1;strokeColor=none;fillColor=none;align=left;verticalAlign=middle;spacingLeft=4;spacingRight=4;overflow=hidden;rotatable=0;points=[[0,0.5],[1,0.5]];portConstraint=eastwest;" vertex="1" parent="4W3oqbQlcdMNd9oFhW5l-15">
          <mxGeometry y="158" width="160" height="20" as="geometry" />
        </mxCell>
        <mxCell id="4W3oqbQlcdMNd9oFhW5l-40" value="&lt;b&gt;Model&lt;br&gt;&lt;/b&gt;" style="swimlane;fontStyle=0;align=center;verticalAlign=top;childLayout=stackLayout;horizontal=1;startSize=30;horizontalStack=0;resizeParent=1;resizeParentMax=0;resizeLast=0;collapsible=0;marginBottom=0;html=1;" parent="1" vertex="1">
          <mxGeometry x="160" y="350" width="180" height="178" as="geometry" />
        </mxCell>
        <mxCell id="4W3oqbQlcdMNd9oFhW5l-41" value="attributes" style="text;html=1;strokeColor=none;fillColor=none;align=center;verticalAlign=middle;spacingLeft=4;spacingRight=4;overflow=hidden;rotatable=0;points=[[0,0.5],[1,0.5]];portConstraint=eastwest;" parent="4W3oqbQlcdMNd9oFhW5l-40" vertex="1">
          <mxGeometry y="30" width="180" height="20" as="geometry" />
        </mxCell>
        <mxCell id="4W3oqbQlcdMNd9oFhW5l-42" value="- session : Session" style="text;html=1;strokeColor=none;fillColor=none;align=left;verticalAlign=middle;spacingLeft=4;spacingRight=4;overflow=hidden;rotatable=0;points=[[0,0.5],[1,0.5]];portConstraint=eastwest;" parent="4W3oqbQlcdMNd9oFhW5l-40" vertex="1">
          <mxGeometry y="50" width="180" height="20" as="geometry" />
        </mxCell>
        <mxCell id="07vZmLZVeoe9q8lstHSA-20" value="- optionparam : OptionParam" style="text;html=1;strokeColor=none;fillColor=none;align=left;verticalAlign=middle;spacingLeft=4;spacingRight=4;overflow=hidden;rotatable=0;points=[[0,0.5],[1,0.5]];portConstraint=eastwest;" vertex="1" parent="4W3oqbQlcdMNd9oFhW5l-40">
          <mxGeometry y="70" width="180" height="20" as="geometry" />
        </mxCell>
        <mxCell id="07vZmLZVeoe9q8lstHSA-21" value="- db : Database" style="text;html=1;strokeColor=none;fillColor=none;align=left;verticalAlign=middle;spacingLeft=4;spacingRight=4;overflow=hidden;rotatable=0;points=[[0,0.5],[1,0.5]];portConstraint=eastwest;" vertex="1" parent="4W3oqbQlcdMNd9oFhW5l-40">
          <mxGeometry y="90" width="180" height="20" as="geometry" />
        </mxCell>
        <mxCell id="4W3oqbQlcdMNd9oFhW5l-45" value="" style="line;strokeWidth=1;fillColor=none;align=left;verticalAlign=middle;spacingTop=-1;spacingLeft=3;spacingRight=3;rotatable=0;labelPosition=right;points=[];portConstraint=eastwest;" parent="4W3oqbQlcdMNd9oFhW5l-40" vertex="1">
          <mxGeometry y="110" width="180" height="8" as="geometry" />
        </mxCell>
        <mxCell id="4W3oqbQlcdMNd9oFhW5l-46" value="operations" style="text;html=1;strokeColor=none;fillColor=none;align=center;verticalAlign=middle;spacingLeft=4;spacingRight=4;overflow=hidden;rotatable=0;points=[[0,0.5],[1,0.5]];portConstraint=eastwest;" parent="4W3oqbQlcdMNd9oFhW5l-40" vertex="1">
          <mxGeometry y="118" width="180" height="20" as="geometry" />
        </mxCell>
        <mxCell id="07vZmLZVeoe9q8lstHSA-22" value="&lt;u&gt;+ getSingleton()&lt;/u&gt;" style="text;html=1;strokeColor=none;fillColor=none;align=left;verticalAlign=middle;spacingLeft=4;spacingRight=4;overflow=hidden;rotatable=0;points=[[0,0.5],[1,0.5]];portConstraint=eastwest;" vertex="1" parent="4W3oqbQlcdMNd9oFhW5l-40">
          <mxGeometry y="138" width="180" height="20" as="geometry" />
        </mxCell>
        <mxCell id="4W3oqbQlcdMNd9oFhW5l-47" value="+ void init()" style="text;html=1;strokeColor=none;fillColor=none;align=left;verticalAlign=middle;spacingLeft=4;spacingRight=4;overflow=hidden;rotatable=0;points=[[0,0.5],[1,0.5]];portConstraint=eastwest;" parent="4W3oqbQlcdMNd9oFhW5l-40" vertex="1">
          <mxGeometry y="158" width="180" height="20" as="geometry" />
        </mxCell>
        <mxCell id="4W3oqbQlcdMNd9oFhW5l-48" style="edgeStyle=orthogonalEdgeStyle;rounded=0;orthogonalLoop=1;jettySize=auto;html=1;exitX=1;exitY=0.5;exitDx=0;exitDy=0;dashed=1;entryX=1;entryY=0.5;entryDx=0;entryDy=0;entryPerimeter=0;" parent="1" source="4W3oqbQlcdMNd9oFhW5l-14" target="4W3oqbQlcdMNd9oFhW5l-41" edge="1">
          <mxGeometry relative="1" as="geometry">
            <mxPoint x="430" y="370" as="targetPoint" />
          </mxGeometry>
        </mxCell>
        <mxCell id="4W3oqbQlcdMNd9oFhW5l-49" value="&amp;lt;&amp;lt;Uses&amp;gt;&amp;gt;" style="edgeLabel;html=1;align=center;verticalAlign=middle;resizable=0;points=[];" parent="1" vertex="1" connectable="0">
          <mxGeometry x="380.0020689655172" y="180" as="geometry">
            <mxPoint x="-24" y="158" as="offset" />
          </mxGeometry>
        </mxCell>
        <mxCell id="4W3oqbQlcdMNd9oFhW5l-66" style="edgeStyle=orthogonalEdgeStyle;rounded=0;orthogonalLoop=1;jettySize=auto;html=1;exitX=0.5;exitY=0;exitDx=0;exitDy=0;startArrow=none;startFill=0;endArrow=blockThin;endFill=0;" parent="1" source="4W3oqbQlcdMNd9oFhW5l-50" target="4W3oqbQlcdMNd9oFhW5l-62" edge="1">
          <mxGeometry relative="1" as="geometry" />
        </mxCell>
        <mxCell id="4W3oqbQlcdMNd9oFhW5l-50" value="&lt;b&gt;Session&lt;br&gt;&lt;/b&gt;" style="swimlane;fontStyle=0;align=center;verticalAlign=top;childLayout=stackLayout;horizontal=1;startSize=30;horizontalStack=0;resizeParent=1;resizeParentMax=0;resizeLast=0;collapsible=0;marginBottom=0;html=1;" parent="1" vertex="1">
          <mxGeometry x="380" y="526" width="140" height="118" as="geometry" />
        </mxCell>
        <mxCell id="4W3oqbQlcdMNd9oFhW5l-51" value="attributes" style="text;html=1;strokeColor=none;fillColor=none;align=center;verticalAlign=middle;spacingLeft=4;spacingRight=4;overflow=hidden;rotatable=0;points=[[0,0.5],[1,0.5]];portConstraint=eastwest;" parent="4W3oqbQlcdMNd9oFhW5l-50" vertex="1">
          <mxGeometry y="30" width="140" height="20" as="geometry" />
        </mxCell>
        <mxCell id="4W3oqbQlcdMNd9oFhW5l-52" value="attribute1" style="text;html=1;strokeColor=none;fillColor=none;align=left;verticalAlign=middle;spacingLeft=4;spacingRight=4;overflow=hidden;rotatable=0;points=[[0,0.5],[1,0.5]];portConstraint=eastwest;" parent="4W3oqbQlcdMNd9oFhW5l-50" vertex="1">
          <mxGeometry y="50" width="140" height="20" as="geometry" />
        </mxCell>
        <mxCell id="4W3oqbQlcdMNd9oFhW5l-53" value="" style="line;strokeWidth=1;fillColor=none;align=left;verticalAlign=middle;spacingTop=-1;spacingLeft=3;spacingRight=3;rotatable=0;labelPosition=right;points=[];portConstraint=eastwest;" parent="4W3oqbQlcdMNd9oFhW5l-50" vertex="1">
          <mxGeometry y="70" width="140" height="8" as="geometry" />
        </mxCell>
        <mxCell id="4W3oqbQlcdMNd9oFhW5l-54" value="operations" style="text;html=1;strokeColor=none;fillColor=none;align=center;verticalAlign=middle;spacingLeft=4;spacingRight=4;overflow=hidden;rotatable=0;points=[[0,0.5],[1,0.5]];portConstraint=eastwest;" parent="4W3oqbQlcdMNd9oFhW5l-50" vertex="1">
          <mxGeometry y="78" width="140" height="20" as="geometry" />
        </mxCell>
        <mxCell id="4W3oqbQlcdMNd9oFhW5l-55" value="&lt;u&gt;+ getInstance()&lt;/u&gt;" style="text;html=1;strokeColor=none;fillColor=none;align=left;verticalAlign=middle;spacingLeft=4;spacingRight=4;overflow=hidden;rotatable=0;points=[[0,0.5],[1,0.5]];portConstraint=eastwest;" parent="4W3oqbQlcdMNd9oFhW5l-50" vertex="1">
          <mxGeometry y="98" width="140" height="20" as="geometry" />
        </mxCell>
        <mxCell id="4W3oqbQlcdMNd9oFhW5l-56" style="edgeStyle=orthogonalEdgeStyle;rounded=0;orthogonalLoop=1;jettySize=auto;html=1;exitX=1;exitY=0.5;exitDx=0;exitDy=0;entryX=0;entryY=0.5;entryDx=0;entryDy=0;endArrow=classic;endFill=1;startArrow=diamond;startFill=1;" parent="1" source="4W3oqbQlcdMNd9oFhW5l-42" target="4W3oqbQlcdMNd9oFhW5l-52" edge="1">
          <mxGeometry relative="1" as="geometry" />
        </mxCell>
        <mxCell id="4W3oqbQlcdMNd9oFhW5l-60" value="&lt;b&gt;&lt;i&gt;FileXML&lt;/i&gt;&lt;br&gt;&lt;/b&gt;" style="swimlane;fontStyle=0;align=center;verticalAlign=top;childLayout=stackLayout;horizontal=1;startSize=30;horizontalStack=0;resizeParent=1;resizeParentMax=0;resizeLast=0;collapsible=0;marginBottom=0;html=1;" parent="1" vertex="1">
          <mxGeometry x="520" y="320" width="140" height="118" as="geometry" />
        </mxCell>
        <mxCell id="4W3oqbQlcdMNd9oFhW5l-61" value="attributes" style="text;html=1;strokeColor=none;fillColor=none;align=center;verticalAlign=middle;spacingLeft=4;spacingRight=4;overflow=hidden;rotatable=0;points=[[0,0.5],[1,0.5]];portConstraint=eastwest;" parent="4W3oqbQlcdMNd9oFhW5l-60" vertex="1">
          <mxGeometry y="30" width="140" height="20" as="geometry" />
        </mxCell>
        <mxCell id="4W3oqbQlcdMNd9oFhW5l-62" value="attribute1" style="text;html=1;strokeColor=none;fillColor=none;align=left;verticalAlign=middle;spacingLeft=4;spacingRight=4;overflow=hidden;rotatable=0;points=[[0,0.5],[1,0.5]];portConstraint=eastwest;" parent="4W3oqbQlcdMNd9oFhW5l-60" vertex="1">
          <mxGeometry y="50" width="140" height="20" as="geometry" />
        </mxCell>
        <mxCell id="4W3oqbQlcdMNd9oFhW5l-63" value="" style="line;strokeWidth=1;fillColor=none;align=left;verticalAlign=middle;spacingTop=-1;spacingLeft=3;spacingRight=3;rotatable=0;labelPosition=right;points=[];portConstraint=eastwest;" parent="4W3oqbQlcdMNd9oFhW5l-60" vertex="1">
          <mxGeometry y="70" width="140" height="8" as="geometry" />
        </mxCell>
        <mxCell id="4W3oqbQlcdMNd9oFhW5l-64" value="operations" style="text;html=1;strokeColor=none;fillColor=none;align=center;verticalAlign=middle;spacingLeft=4;spacingRight=4;overflow=hidden;rotatable=0;points=[[0,0.5],[1,0.5]];portConstraint=eastwest;" parent="4W3oqbQlcdMNd9oFhW5l-60" vertex="1">
          <mxGeometry y="78" width="140" height="20" as="geometry" />
        </mxCell>
        <mxCell id="4W3oqbQlcdMNd9oFhW5l-65" value="&lt;u&gt;+ getInstance()&lt;/u&gt;" style="text;html=1;strokeColor=none;fillColor=none;align=left;verticalAlign=middle;spacingLeft=4;spacingRight=4;overflow=hidden;rotatable=0;points=[[0,0.5],[1,0.5]];portConstraint=eastwest;" parent="4W3oqbQlcdMNd9oFhW5l-60" vertex="1">
          <mxGeometry y="98" width="140" height="20" as="geometry" />
        </mxCell>
        <mxCell id="07vZmLZVeoe9q8lstHSA-2" value="&lt;b&gt;Control&lt;br&gt;&lt;/b&gt;" style="swimlane;fontStyle=0;align=center;verticalAlign=top;childLayout=stackLayout;horizontal=1;startSize=30;horizontalStack=0;resizeParent=1;resizeParentMax=0;resizeLast=0;collapsible=0;marginBottom=0;html=1;" vertex="1" parent="1">
          <mxGeometry x="120" y="585" width="170" height="138" as="geometry" />
        </mxCell>
        <mxCell id="07vZmLZVeoe9q8lstHSA-3" value="attributes" style="text;html=1;strokeColor=none;fillColor=none;align=center;verticalAlign=middle;spacingLeft=4;spacingRight=4;overflow=hidden;rotatable=0;points=[[0,0.5],[1,0.5]];portConstraint=eastwest;" vertex="1" parent="07vZmLZVeoe9q8lstHSA-2">
          <mxGeometry y="30" width="170" height="20" as="geometry" />
        </mxCell>
        <mxCell id="07vZmLZVeoe9q8lstHSA-4" value="attribute1" style="text;html=1;strokeColor=none;fillColor=none;align=left;verticalAlign=middle;spacingLeft=4;spacingRight=4;overflow=hidden;rotatable=0;points=[[0,0.5],[1,0.5]];portConstraint=eastwest;" vertex="1" parent="07vZmLZVeoe9q8lstHSA-2">
          <mxGeometry y="50" width="170" height="20" as="geometry" />
        </mxCell>
        <mxCell id="07vZmLZVeoe9q8lstHSA-5" value="" style="line;strokeWidth=1;fillColor=none;align=left;verticalAlign=middle;spacingTop=-1;spacingLeft=3;spacingRight=3;rotatable=0;labelPosition=right;points=[];portConstraint=eastwest;" vertex="1" parent="07vZmLZVeoe9q8lstHSA-2">
          <mxGeometry y="70" width="170" height="8" as="geometry" />
        </mxCell>
        <mxCell id="07vZmLZVeoe9q8lstHSA-6" value="operations" style="text;html=1;strokeColor=none;fillColor=none;align=center;verticalAlign=middle;spacingLeft=4;spacingRight=4;overflow=hidden;rotatable=0;points=[[0,0.5],[1,0.5]];portConstraint=eastwest;" vertex="1" parent="07vZmLZVeoe9q8lstHSA-2">
          <mxGeometry y="78" width="170" height="20" as="geometry" />
        </mxCell>
        <mxCell id="07vZmLZVeoe9q8lstHSA-7" value="&lt;u&gt;+ getSingleton()&lt;/u&gt;" style="text;html=1;strokeColor=none;fillColor=none;align=left;verticalAlign=middle;spacingLeft=4;spacingRight=4;overflow=hidden;rotatable=0;points=[[0,0.5],[1,0.5]];portConstraint=eastwest;" vertex="1" parent="07vZmLZVeoe9q8lstHSA-2">
          <mxGeometry y="98" width="170" height="20" as="geometry" />
        </mxCell>
        <mxCell id="07vZmLZVeoe9q8lstHSA-11" value="&lt;u&gt;+ initSingletonWithoutView()&lt;/u&gt;" style="text;html=1;strokeColor=none;fillColor=none;align=left;verticalAlign=middle;spacingLeft=4;spacingRight=4;overflow=hidden;rotatable=0;points=[[0,0.5],[1,0.5]];portConstraint=eastwest;" vertex="1" parent="07vZmLZVeoe9q8lstHSA-2">
          <mxGeometry y="118" width="170" height="20" as="geometry" />
        </mxCell>
        <mxCell id="07vZmLZVeoe9q8lstHSA-13" style="edgeStyle=orthogonalEdgeStyle;rounded=0;orthogonalLoop=1;jettySize=auto;html=1;exitX=1;exitY=0.5;exitDx=0;exitDy=0;dashed=1;" edge="1" parent="1" source="07vZmLZVeoe9q8lstHSA-1" target="4W3oqbQlcdMNd9oFhW5l-17">
          <mxGeometry relative="1" as="geometry" />
        </mxCell>
        <mxCell id="07vZmLZVeoe9q8lstHSA-14" value="&amp;lt;&amp;lt;Uses&amp;gt;&amp;gt;" style="edgeLabel;html=1;align=center;verticalAlign=middle;resizable=0;points=[];" vertex="1" connectable="0" parent="07vZmLZVeoe9q8lstHSA-13">
          <mxGeometry x="-0.1787" relative="1" as="geometry">
            <mxPoint as="offset" />
          </mxGeometry>
        </mxCell>
        <mxCell id="07vZmLZVeoe9q8lstHSA-15" style="edgeStyle=orthogonalEdgeStyle;rounded=0;orthogonalLoop=1;jettySize=auto;html=1;exitX=0;exitY=0.5;exitDx=0;exitDy=0;dashed=1;entryX=0.002;entryY=-0.233;entryDx=0;entryDy=0;entryPerimeter=0;" edge="1" parent="1" source="4W3oqbQlcdMNd9oFhW5l-13" target="07vZmLZVeoe9q8lstHSA-6">
          <mxGeometry relative="1" as="geometry">
            <mxPoint x="150" y="530" as="targetPoint" />
          </mxGeometry>
        </mxCell>
        <mxCell id="07vZmLZVeoe9q8lstHSA-16" value="&amp;lt;&amp;lt;Uses&amp;gt;&amp;gt;" style="edgeLabel;html=1;align=center;verticalAlign=middle;resizable=0;points=[];" vertex="1" connectable="0" parent="07vZmLZVeoe9q8lstHSA-15">
          <mxGeometry x="-0.0587" relative="1" as="geometry">
            <mxPoint as="offset" />
          </mxGeometry>
        </mxCell>
        <mxCell id="07vZmLZVeoe9q8lstHSA-23" value="&lt;b&gt;Database&lt;br&gt;&lt;/b&gt;" style="swimlane;fontStyle=0;align=center;verticalAlign=top;childLayout=stackLayout;horizontal=1;startSize=30;horizontalStack=0;resizeParent=1;resizeParentMax=0;resizeLast=0;collapsible=0;marginBottom=0;html=1;" vertex="1" parent="1">
          <mxGeometry x="380" y="680" width="140" height="118" as="geometry" />
        </mxCell>
        <mxCell id="07vZmLZVeoe9q8lstHSA-24" value="attributes" style="text;html=1;strokeColor=none;fillColor=none;align=center;verticalAlign=middle;spacingLeft=4;spacingRight=4;overflow=hidden;rotatable=0;points=[[0,0.5],[1,0.5]];portConstraint=eastwest;" vertex="1" parent="07vZmLZVeoe9q8lstHSA-23">
          <mxGeometry y="30" width="140" height="20" as="geometry" />
        </mxCell>
        <mxCell id="07vZmLZVeoe9q8lstHSA-25" value="attribute1" style="text;html=1;strokeColor=none;fillColor=none;align=left;verticalAlign=middle;spacingLeft=4;spacingRight=4;overflow=hidden;rotatable=0;points=[[0,0.5],[1,0.5]];portConstraint=eastwest;" vertex="1" parent="07vZmLZVeoe9q8lstHSA-23">
          <mxGeometry y="50" width="140" height="20" as="geometry" />
        </mxCell>
        <mxCell id="07vZmLZVeoe9q8lstHSA-26" value="" style="line;strokeWidth=1;fillColor=none;align=left;verticalAlign=middle;spacingTop=-1;spacingLeft=3;spacingRight=3;rotatable=0;labelPosition=right;points=[];portConstraint=eastwest;" vertex="1" parent="07vZmLZVeoe9q8lstHSA-23">
          <mxGeometry y="70" width="140" height="8" as="geometry" />
        </mxCell>
        <mxCell id="07vZmLZVeoe9q8lstHSA-27" value="operations" style="text;html=1;strokeColor=none;fillColor=none;align=center;verticalAlign=middle;spacingLeft=4;spacingRight=4;overflow=hidden;rotatable=0;points=[[0,0.5],[1,0.5]];portConstraint=eastwest;" vertex="1" parent="07vZmLZVeoe9q8lstHSA-23">
          <mxGeometry y="78" width="140" height="20" as="geometry" />
        </mxCell>
        <mxCell id="07vZmLZVeoe9q8lstHSA-28" value="&lt;u&gt;+ getInstance()&lt;/u&gt;" style="text;html=1;strokeColor=none;fillColor=none;align=left;verticalAlign=middle;spacingLeft=4;spacingRight=4;overflow=hidden;rotatable=0;points=[[0,0.5],[1,0.5]];portConstraint=eastwest;" vertex="1" parent="07vZmLZVeoe9q8lstHSA-23">
          <mxGeometry y="98" width="140" height="20" as="geometry" />
        </mxCell>
      </root>
    </mxGraphModel>
  </diagram>
</mxfile>
